<?xml version="1.0" encoding="utf-8"?>
<!-- Generator: Adobe Illustrator 16.0.0, SVG Export Plug-In . SVG Version: 6.00 Build 0)  -->
<!DOCTYPE svg PUBLIC "-//W3C//DTD SVG 1.1//EN" "http://www.w3.org/Graphics/SVG/1.1/DTD/svg11.dtd">
<svg version="1.1" id="Camada_1" xmlns="http://www.w3.org/2000/svg" xmlns:xlink="http://www.w3.org/1999/xlink" x="0px" y="0px"
	 width="218.667px" height="98px" viewBox="0 0 218.667 98" enable-background="new 0 0 218.667 98" xml:space="preserve">
<polyline fill="#A92615" points="124.544,36.894 131.802,33.19 131.802,33.09 111.427,22.716 111.427,17.16 136.257,30.626 
	136.257,35.761 111.37,49.274 111.37,43.618 119.521,39.462 "/>
<polyline fill="#A92615" points="94.794,23.184 87.532,19.479 87.532,19.378 107.909,9.003 107.909,3.449 83.079,16.911 
	83.079,22.047 107.966,35.563 107.966,29.904 99.817,25.751 "/>
<polygon fill="#E94E24" points="83.079,16.911 83.079,22.047 107.966,35.563 107.966,29.904 "/>
<polygon fill="#E94E24" points="111.239,3.653 111.239,8.788 136.126,22.306 136.126,16.647 "/>
<polyline fill="#E94E24" points="111.427,22.716 111.427,17.16 136.257,30.626 136.257,35.761 "/>
<polyline fill="#E94E24" points="82.833,35.909 82.833,30.353 107.667,43.817 107.667,48.953 "/>
<g>
	<path fill="#FAD0CB" d="M69.511,64.925c-0.621-0.406-1.426-0.608-2.408-0.608c-2.605,0-3.908,1.7-3.908,5.101v3.56h5.535v2.431
		h-5.535v19.795h-2.777V75.407h-3.885v-2.431h3.885v-3.733c0-1.113,0.141-2.123,0.424-3.027c0.281-0.904,0.697-1.679,1.248-2.322
		c0.549-0.645,1.24-1.141,2.072-1.487s1.791-0.521,2.875-0.521c1.043,0,1.867,0.137,2.475,0.412V64.925z"/>
	<path fill="#FAD0CB" d="M83.272,75.819c-0.652-0.477-1.49-0.715-2.518-0.715c-0.738,0-1.391,0.141-1.955,0.422
		c-0.564,0.283-1.059,0.662-1.486,1.141c-0.426,0.477-0.789,1.031-1.086,1.66c-0.295,0.629-0.535,1.284-0.715,1.965
		c-0.182,0.68-0.313,1.367-0.391,2.061c-0.08,0.695-0.119,1.354-0.119,1.977v10.873h-2.758V72.977h2.758v4.753h0.086
		c0.26-0.81,0.59-1.537,0.988-2.181c0.396-0.644,0.857-1.187,1.377-1.628c0.521-0.441,1.09-0.777,1.705-1.01
		c0.615-0.23,1.262-0.347,1.941-0.347c0.449,0,0.85,0.028,1.205,0.087c0.355,0.058,0.676,0.145,0.967,0.26V75.819z"/>
	<path fill="#FAD0CB" d="M95.817,95.724c-1.648,0-3.129-0.275-4.439-0.824c-1.309-0.551-2.426-1.328-3.352-2.334
		c-0.928-1.006-1.637-2.21-2.129-3.613c-0.49-1.404-0.736-2.959-0.736-4.667c0-1.853,0.26-3.509,0.781-4.971
		c0.52-1.462,1.262-2.702,2.225-3.722c0.961-1.021,2.123-1.799,3.482-2.334c1.361-0.535,2.881-0.803,4.559-0.803
		c1.605,0,3.053,0.264,4.342,0.792c1.287,0.528,2.379,1.292,3.277,2.29c0.896,0.998,1.584,2.214,2.063,3.646
		c0.477,1.432,0.715,3.061,0.715,4.883c0,1.736-0.25,3.318-0.748,4.743c-0.5,1.425-1.213,2.651-2.139,3.679
		s-2.055,1.823-3.385,2.388C99.001,95.441,97.495,95.724,95.817,95.724z M96.034,74.865c-1.215,0-2.314,0.21-3.299,0.63
		s-1.826,1.03-2.529,1.834c-0.701,0.803-1.24,1.787-1.617,2.951c-0.375,1.165-0.563,2.485-0.563,3.961
		c0,1.39,0.188,2.641,0.563,3.756c0.377,1.113,0.908,2.068,1.596,2.865c0.688,0.795,1.523,1.406,2.508,1.834
		c0.984,0.426,2.084,0.64,3.299,0.64c1.244,0,2.344-0.206,3.299-0.618s1.766-1.014,2.432-1.802s1.168-1.755,1.508-2.897
		s0.51-2.445,0.51-3.907c0-2.995-0.666-5.285-1.996-6.87C100.411,75.657,98.509,74.865,96.034,74.865z"/>
	<path fill="#FAD0CB" d="M127.202,95.202V82.396c0-5.021-1.822-7.531-5.469-7.531c-0.971,0-1.867,0.192-2.691,0.575
		s-1.537,0.915-2.139,1.596c-0.6,0.68-1.07,1.486-1.41,2.42s-0.51,1.942-0.51,3.027v12.719h-2.779V72.977h2.779v3.864h0.086
		c1.65-2.924,4.131-4.385,7.445-4.385c2.432,0,4.283,0.789,5.557,2.365c1.273,1.578,1.91,3.857,1.91,6.838v13.543H127.202z"/>
	<path fill="#FAD0CB" d="M146.216,94.942c-0.953,0.478-1.996,0.716-3.125,0.716c-3.588,0-5.383-2.069-5.383-6.208V75.407h-3.906
		v-2.431h3.906v-5.6l2.779-0.911v6.511h5.729v2.431h-5.729v13.609c0,1.506,0.246,2.59,0.736,3.256
		c0.492,0.666,1.324,0.998,2.496,0.998c0.869,0,1.701-0.26,2.496-0.781V94.942z"/>
	<path fill="#FAD0CB" d="M151.772,84.589c0.016,1.36,0.195,2.583,0.543,3.668c0.348,1.086,0.848,2.004,1.498,2.757
		s1.443,1.327,2.377,1.726s1.986,0.597,3.158,0.597c2.502,0,4.869-0.876,7.098-2.626v2.734c-2.127,1.52-4.703,2.279-7.727,2.279
		c-1.492,0-2.844-0.261-4.061-0.781c-1.215-0.521-2.25-1.277-3.104-2.269s-1.512-2.21-1.975-3.657s-0.695-3.096-0.695-4.949
		c0-1.663,0.254-3.204,0.76-4.623c0.508-1.418,1.209-2.645,2.105-3.679c0.898-1.034,1.961-1.845,3.191-2.431
		s2.576-0.879,4.037-0.879c1.432,0,2.699,0.25,3.799,0.748c1.1,0.5,2.021,1.213,2.768,2.139c0.744,0.926,1.313,2.055,1.703,3.386
		s0.586,2.821,0.586,4.472v1.389H151.772z M164.97,82.157c-0.043-2.314-0.594-4.109-1.648-5.383
		c-1.057-1.272-2.525-1.909-4.406-1.909c-0.941,0-1.813,0.167-2.617,0.499c-0.803,0.333-1.508,0.814-2.115,1.443
		s-1.111,1.396-1.508,2.301c-0.398,0.904-0.678,1.921-0.836,3.049H164.97z"/>
	<path fill="#FAD0CB" d="M188.28,95.202V82.396c0-5.021-1.822-7.531-5.469-7.531c-0.971,0-1.867,0.192-2.691,0.575
		s-1.537,0.915-2.139,1.596c-0.6,0.68-1.07,1.486-1.41,2.42s-0.51,1.942-0.51,3.027v12.719h-2.779V72.977h2.779v3.864h0.086
		c1.65-2.924,4.131-4.385,7.445-4.385c2.432,0,4.283,0.789,5.557,2.365c1.273,1.578,1.91,3.857,1.91,6.838v13.543H188.28z"/>
	<path fill="#FAD0CB" d="M213.329,95.202v-3.906h-0.088c-0.738,1.403-1.791,2.492-3.158,3.267s-2.918,1.161-4.654,1.161
		c-1.391,0-2.652-0.258-3.789-0.771c-1.135-0.514-2.109-1.255-2.918-2.226c-0.811-0.969-1.438-2.141-1.879-3.516
		s-0.662-2.93-0.662-4.666c0-1.795,0.242-3.434,0.729-4.916c0.484-1.484,1.172-2.758,2.061-3.82
		c0.891-1.064,1.961-1.889,3.213-2.475s2.645-0.879,4.178-0.879c3.199,0,5.492,1.28,6.881,3.842h0.088v-14h2.777v32.904H213.329z
		 M213.329,81.789c0-0.97-0.168-1.874-0.5-2.714c-0.332-0.838-0.797-1.569-1.389-2.191c-0.594-0.622-1.307-1.114-2.139-1.477
		c-0.832-0.361-1.746-0.542-2.746-0.542c-1.1,0-2.111,0.217-3.037,0.651c-0.928,0.434-1.719,1.06-2.377,1.877
		c-0.66,0.818-1.172,1.813-1.541,2.984s-0.555,2.504-0.555,3.994c0,1.403,0.166,2.662,0.5,3.776
		c0.332,1.114,0.807,2.055,1.422,2.821c0.615,0.768,1.35,1.354,2.203,1.758c0.854,0.406,1.801,0.608,2.844,0.608
		c1.127,0,2.145-0.202,3.049-0.608c0.904-0.404,1.672-0.961,2.301-1.67s1.113-1.541,1.453-2.496s0.512-1.976,0.512-3.061V81.789z"/>
</g>
<g>
	<path fill="#DF9489" d="M1.726,91.209c0.42,0.333,0.875,0.63,1.367,0.89c0.492,0.261,0.998,0.485,1.52,0.673
		c0.52,0.188,1.045,0.329,1.572,0.423c0.529,0.095,1.031,0.142,1.51,0.142c3.299,0,4.949-1.237,4.949-3.712
		c0-0.564-0.117-1.053-0.348-1.465c-0.232-0.412-0.564-0.788-0.998-1.129c-0.436-0.34-0.955-0.654-1.564-0.943
		c-0.607-0.289-1.295-0.594-2.061-0.912c-1.027-0.42-1.91-0.846-2.648-1.28S3.679,82.986,3.2,82.473
		c-0.477-0.514-0.832-1.077-1.063-1.692c-0.232-0.615-0.348-1.314-0.348-2.096c0-0.983,0.213-1.858,0.641-2.626
		c0.426-0.767,1.002-1.418,1.725-1.953c0.725-0.535,1.561-0.944,2.508-1.227s1.943-0.423,2.984-0.423
		c1.924,0,3.604,0.361,5.035,1.085v2.931c-1.664-1.071-3.459-1.606-5.383-1.606c-0.693,0-1.328,0.087-1.898,0.261
		c-0.572,0.174-1.061,0.42-1.465,0.737c-0.406,0.319-0.721,0.698-0.945,1.14s-0.336,0.93-0.336,1.465
		c0,0.551,0.086,1.031,0.26,1.443s0.445,0.785,0.814,1.118s0.846,0.651,1.434,0.955c0.586,0.304,1.297,0.63,2.137,0.977
		c1.07,0.435,1.998,0.864,2.779,1.292c0.781,0.426,1.424,0.89,1.932,1.389c0.506,0.499,0.881,1.057,1.129,1.672
		c0.244,0.615,0.367,1.327,0.367,2.137c0,0.999-0.205,1.889-0.617,2.67s-0.984,1.44-1.715,1.976c-0.73,0.536-1.588,0.94-2.572,1.216
		c-0.984,0.274-2.055,0.412-3.213,0.412c-2.242,0-4.131-0.471-5.664-1.411V91.209z"/>
	<path fill="#DF9489" d="M22.366,84.589c0.014,1.36,0.195,2.583,0.543,3.668c0.348,1.086,0.846,2.004,1.498,2.757
		c0.65,0.753,1.443,1.327,2.377,1.726s1.984,0.597,3.158,0.597c2.502,0,4.869-0.876,7.098-2.626v2.734
		c-2.129,1.52-4.703,2.279-7.729,2.279c-1.49,0-2.842-0.261-4.059-0.781c-1.215-0.521-2.25-1.277-3.104-2.269
		s-1.512-2.21-1.975-3.657s-0.695-3.096-0.695-4.949c0-1.663,0.254-3.204,0.76-4.623c0.506-1.418,1.209-2.645,2.105-3.679
		s1.961-1.845,3.191-2.431c1.229-0.586,2.574-0.879,4.037-0.879c1.432,0,2.697,0.25,3.797,0.748c1.1,0.5,2.023,1.213,2.768,2.139
		c0.746,0.926,1.314,2.055,1.705,3.386s0.586,2.821,0.586,4.472v1.389H22.366z M35.563,82.157c-0.043-2.314-0.594-4.109-1.65-5.383
		c-1.057-1.272-2.525-1.909-4.406-1.909c-0.939,0-1.813,0.167-2.615,0.499c-0.803,0.333-1.508,0.814-2.115,1.443
		s-1.111,1.396-1.51,2.301s-0.676,1.921-0.836,3.049H35.563z"/>
	<path fill="#DF9489" d="M54.901,75.819c-0.65-0.477-1.49-0.715-2.518-0.715c-0.738,0-1.389,0.141-1.953,0.422
		c-0.564,0.283-1.061,0.662-1.486,1.141c-0.428,0.477-0.789,1.031-1.086,1.66s-0.535,1.284-0.715,1.965
		c-0.182,0.68-0.313,1.367-0.393,2.061c-0.078,0.695-0.119,1.354-0.119,1.977v10.873h-2.756V72.977h2.756v4.753h0.088
		c0.26-0.81,0.59-1.537,0.986-2.181c0.398-0.644,0.857-1.187,1.379-1.628s1.09-0.777,1.703-1.01c0.615-0.23,1.264-0.347,1.943-0.347
		c0.449,0,0.85,0.028,1.205,0.087c0.354,0.058,0.676,0.145,0.965,0.26V75.819z"/>
</g>
</svg>
