<svg width="445" height="131" viewBox="0 0 445 131" fill="none" xmlns="http://www.w3.org/2000/svg">
<path fill-rule="evenodd" clip-rule="evenodd" d="M64.035 0.156037C60.2573 0.898382 56.6927 2.29839 53.7187 4.35606L13.1494 32.4253C3.84437 38.8632 3.84437 49.3012 13.1494 55.7392L63.3462 90.4695C67.3341 93.2287 73.7997 93.2287 77.7876 90.4695C81.7754 87.7104 81.7754 83.237 77.7876 80.4779L27.5907 45.7475C26.2614 44.8278 26.2614 43.3367 27.5907 42.417L64.035 17.2018V0.156037ZM77.0986 17.2017L123.171 49.0781C127.159 51.8372 133.624 51.8372 137.612 49.0781C141.6 46.319 141.6 41.8455 137.612 39.0864L87.4151 4.35607C84.441 2.29836 80.8763 0.898343 77.0986 0.156005V17.2017Z" fill="#EE3231"/>
<path fill-rule="evenodd" clip-rule="evenodd" d="M113.543 84.4955C114.872 85.4152 114.872 86.9064 113.543 87.8261L77.0986 113.041V130.087C80.8764 129.345 84.441 127.945 87.4151 125.887L127.984 97.8178C137.289 91.3798 137.289 80.9418 127.984 74.5038L77.7876 39.7735C73.7997 37.0144 67.3341 37.0144 63.3462 39.7735C59.3584 42.5326 59.3584 47.0061 63.3462 49.7652L113.543 84.4955ZM64.035 130.087C60.2573 129.345 56.6927 127.945 53.7187 125.887L3.52182 91.1566C-0.466035 88.3975 -0.466035 83.9241 3.52182 81.165C7.50968 78.4058 13.9753 78.4058 17.9631 81.165L64.035 113.041V130.087Z" fill="#EE3231"/>
<path fill-rule="evenodd" clip-rule="evenodd" d="M344.861 49.3713C344.898 48.4648 345.063 46.9271 345.708 46.3611C346.367 45.7836 349.202 43.5636 352.002 41.6006C352.018 41.5925 352.04 41.5799 352.069 41.564C352.57 41.2829 354.964 39.9412 354.866 43.2656C354.863 43.3822 354.883 43.4574 354.922 43.4988V122.782C354.922 124.497 354.065 125.354 352.35 125.354H347.434C345.719 125.354 344.861 124.497 344.861 122.782V49.3713ZM170.624 114.379C169.672 115.75 170.205 117.351 172.225 119.18C174.473 121.238 177.865 123.068 182.4 124.668C186.935 126.269 192.652 127.069 199.549 127.069C205.304 127.069 210.087 126.364 213.898 124.954C217.709 123.544 221.005 121.029 223.787 117.408C226.569 113.788 227.96 109.272 227.96 103.86C227.96 100.888 227.522 98.2201 226.645 95.8573C225.807 93.4564 224.607 91.246 223.044 89.2262C221.52 87.1683 219.004 85.2056 215.498 83.3383C211.725 81.3185 207.305 79.6226 202.236 78.2506C197.206 76.8406 193.49 75.6211 191.089 74.5921C189.298 73.8299 187.774 72.7438 186.516 71.3337C185.258 69.9237 184.477 68.5517 184.172 67.2179C183.867 65.8459 183.715 64.3597 183.715 62.7591C183.715 60.2057 184.382 57.9573 185.716 56.0137C187.05 54.0701 188.879 52.6981 191.203 51.8978C193.528 51.0594 196.444 50.6402 199.95 50.6402C202.694 50.6402 205.456 51.25 208.238 52.4695C211.059 53.6509 213.44 54.9275 215.384 56.2995C217.937 58.0906 219.652 58.3574 220.529 57.0998L223.444 52.9268C224.511 51.3643 224.054 49.878 222.072 48.468C219.252 46.4482 216.051 44.8095 212.469 43.5518C208.886 42.2942 204.675 41.6654 199.835 41.6654C195.605 41.6654 191.432 42.2371 187.316 43.3803C183.239 44.5236 179.79 46.8483 176.97 50.3544C174.149 53.8605 172.739 58.0335 172.739 62.8734C172.739 66.0365 173.063 68.8566 173.711 71.3337C174.397 73.7728 175.75 76.1546 177.77 78.4793C179.828 80.804 182.572 82.7857 186.002 84.4244C189.469 86.0631 193.509 87.5875 198.12 88.9975C202.77 90.4076 206.257 91.6462 208.581 92.7132C209.991 93.3611 211.344 94.2567 212.64 95.4C213.936 96.5432 214.87 97.9724 215.441 99.6873C216.051 101.364 216.356 103.193 216.356 105.175C216.356 107.919 215.632 110.263 214.184 112.206C212.774 114.112 210.887 115.579 208.524 116.608C206.161 117.637 203.265 118.151 199.835 118.151C195.186 118.151 191.223 117.427 187.945 115.979C184.706 114.531 181.581 112.683 178.57 110.434C176.284 108.719 174.626 108.605 173.597 110.091L170.624 114.379ZM244.652 72.7628C239.927 78.365 237.564 85.8916 237.564 95.3428C237.564 104.794 239.812 112.321 244.309 117.923C248.844 123.525 255.875 126.326 265.403 126.326C272.72 126.326 278.074 125.106 281.466 122.667C284.896 120.228 286.973 118.456 287.697 117.351C288.574 116.017 288.574 114.969 287.697 114.207L284.324 111.292C283.181 110.301 282 110.606 280.78 112.206C279.675 113.654 277.941 115.122 275.578 116.608C273.215 118.094 269.824 118.837 265.403 118.837C261.211 118.837 257.457 117.408 254.141 114.55C250.826 111.654 248.844 106.528 248.196 99.1728H288.04C289.602 99.1728 290.384 98.3153 290.384 96.6004C290.384 85.3581 287.964 77.1836 283.124 72.0769C278.322 66.9321 272.263 64.3597 264.946 64.3597C256.142 64.3597 249.378 67.1607 244.652 72.7628ZM280.266 91.7414H247.968C248.539 84.272 250.369 79.07 253.456 76.1355C256.542 73.163 260.296 71.6767 264.717 71.6767C269.747 71.6767 273.558 73.6965 276.15 77.7362C278.741 81.7377 280.113 86.4061 280.266 91.7414ZM306.161 125.354C304.446 125.354 303.589 124.497 303.589 122.782V67.9039C303.589 66.1889 304.446 65.3315 306.161 65.3315H310.963C312.678 65.3315 313.535 66.1889 313.535 67.9039V74.7636H313.764C315.593 71.3337 317.746 68.7423 320.224 66.9892C322.701 65.2362 325.788 64.3597 329.484 64.3597C331.923 64.3597 333.638 64.5693 334.629 64.9885C335.505 65.3315 335.829 65.9031 335.601 66.7034L334.286 71.3909C334.095 72.0769 333.6 72.3436 332.8 72.1912C331.466 71.9244 330.208 71.7911 329.027 71.7911C324.568 71.7911 320.89 73.8109 317.994 77.8505C315.098 81.852 313.65 87.3207 313.65 94.2567V122.782C313.65 124.497 312.792 125.354 311.077 125.354H306.161ZM373.729 125.354C372.014 125.354 371.157 124.497 371.157 122.782V67.9039C371.157 66.1889 372.014 65.3315 373.729 65.3315H378.646C380.36 65.3315 381.218 66.1889 381.218 67.9039V122.782C381.218 124.497 380.36 125.354 378.646 125.354H373.729ZM394.423 65.3315C392.746 65.3315 392.232 66.2652 392.879 68.1325L411.629 121.867C412.43 124.192 413.459 125.354 414.716 125.354H422.262C423.52 125.354 424.549 124.192 425.349 121.867L444.099 68.1325C444.747 66.2652 444.232 65.3315 442.555 65.3315H436.324C435.105 65.3315 434.247 66.0746 433.752 67.5609L421.633 105.289C420.642 108.376 419.956 110.51 419.575 111.692C419.232 112.835 418.908 114.264 418.603 115.979H418.375C418.07 114.264 417.727 112.835 417.346 111.692C417.003 110.51 416.336 108.376 415.345 105.289L403.226 67.5609C402.731 66.0746 401.873 65.3315 400.654 65.3315H394.423Z" fill="#EE3231"/>
<rect x="371.203" y="40.7225" width="10.0131" height="10.0131" rx="5.00657" fill="#EE3231"/>
</svg>
