<svg width="59" height="60" viewBox="0 0 59 60" fill="none" xmlns="http://www.w3.org/2000/svg">
<path d="M19.4259 5.30908H39.9459C47.763 5.30908 54.1145 11.6605 54.1145 19.4777V39.9977C54.1145 43.7554 52.6217 47.3592 49.9646 50.0163C47.3075 52.6735 43.7036 54.1662 39.9459 54.1662H19.4259C11.6088 54.1662 5.25732 47.8148 5.25732 39.9977V19.4777C5.25732 15.7199 6.75008 12.1161 9.4072 9.45896C12.0643 6.80184 15.6682 5.30908 19.4259 5.30908ZM18.9373 10.1948C16.6049 10.1948 14.3681 11.1213 12.7188 12.7706C11.0696 14.4198 10.143 16.6567 10.143 18.9891V40.4862C10.143 45.3475 14.076 49.2805 18.9373 49.2805H40.4345C42.7669 49.2805 45.0037 48.354 46.653 46.7047C48.3022 45.0555 49.2288 42.8186 49.2288 40.4862V18.9891C49.2288 14.1278 45.2957 10.1948 40.4345 10.1948H18.9373ZM42.5109 13.8591C43.3208 13.8591 44.0974 14.1808 44.6701 14.7535C45.2428 15.3261 45.5645 16.1028 45.5645 16.9127C45.5645 17.7225 45.2428 18.4992 44.6701 19.0719C44.0974 19.6445 43.3208 19.9662 42.5109 19.9662C41.701 19.9662 40.9243 19.6445 40.3517 19.0719C39.779 18.4992 39.4573 17.7225 39.4573 16.9127C39.4573 16.1028 39.779 15.3261 40.3517 14.7535C40.9243 14.1808 41.701 13.8591 42.5109 13.8591ZM29.6859 17.5234C32.9253 17.5234 36.0321 18.8102 38.3227 21.1008C40.6133 23.3915 41.9002 26.4982 41.9002 29.7377C41.9002 32.9771 40.6133 36.0838 38.3227 38.3745C36.0321 40.6651 32.9253 41.9519 29.6859 41.9519C26.4465 41.9519 23.3397 40.6651 21.0491 38.3745C18.7585 36.0838 17.4716 32.9771 17.4716 29.7377C17.4716 26.4982 18.7585 23.3915 21.0491 21.1008C23.3397 18.8102 26.4465 17.5234 29.6859 17.5234ZM29.6859 22.4091C27.7422 22.4091 25.8782 23.1812 24.5038 24.5556C23.1294 25.9299 22.3573 27.794 22.3573 29.7377C22.3573 31.6813 23.1294 33.5454 24.5038 34.9197C25.8782 36.2941 27.7422 37.0662 29.6859 37.0662C31.6296 37.0662 33.4936 36.2941 34.868 34.9197C36.2424 33.5454 37.0145 31.6813 37.0145 29.7377C37.0145 27.794 36.2424 25.9299 34.868 24.5556C33.4936 23.1812 31.6296 22.4091 29.6859 22.4091Z" fill="white"/>
</svg>
