<svg width="59" height="60" viewBox="0 0 59 60" fill="none" xmlns="http://www.w3.org/2000/svg">
<path d="M46.4143 7.75195C47.7101 7.75195 48.9528 8.2667 49.869 9.18295C50.7853 10.0992 51.3 11.3419 51.3 12.6377V46.8377C51.3 48.1334 50.7853 49.3761 49.869 50.2924C48.9528 51.2086 47.7101 51.7234 46.4143 51.7234H12.2143C10.9186 51.7234 9.67585 51.2086 8.75961 50.2924C7.84336 49.3761 7.32861 48.1334 7.32861 46.8377V12.6377C7.32861 11.3419 7.84336 10.0992 8.75961 9.18295C9.67585 8.2667 10.9186 7.75195 12.2143 7.75195H46.4143ZM45.1929 45.6162V32.6691C45.1929 30.557 44.3539 28.5314 42.8604 27.0379C41.3669 25.5444 39.3413 24.7054 37.2292 24.7054C35.1528 24.7054 32.7343 25.9757 31.5618 27.8811V25.1695H24.7462V45.6162H31.5618V33.573C31.5618 31.692 33.0763 30.153 34.9573 30.153C35.8644 30.153 36.7343 30.5133 37.3756 31.1546C38.017 31.796 38.3773 32.6659 38.3773 33.573V45.6162H45.1929ZM16.8069 21.3342C17.8953 21.3342 18.9392 20.9019 19.7089 20.1322C20.4785 19.3626 20.9109 18.3187 20.9109 17.2302C20.9109 14.9584 19.0788 13.1018 16.8069 13.1018C15.712 13.1018 14.6619 13.5368 13.8877 14.311C13.1134 15.0852 12.6785 16.1353 12.6785 17.2302C12.6785 19.5021 14.535 21.3342 16.8069 21.3342ZM20.2025 45.6162V25.1695H13.4358V45.6162H20.2025Z" fill="white"/>
</svg>
