<svg width="60" height="60" viewBox="0 0 60 60" fill="none" xmlns="http://www.w3.org/2000/svg">
<path d="M25.1141 37.0658L37.7926 29.7372L25.1141 22.4086V37.0658ZM53.3536 17.9382C53.6711 19.0864 53.891 20.6253 54.0376 22.5796C54.2086 24.5339 54.2819 26.2195 54.2819 27.6852L54.4284 29.7372C54.4284 35.0871 54.0376 39.0201 53.3536 41.5362C52.7429 43.7348 51.326 45.1516 49.1274 45.7624C47.9793 46.0799 45.8784 46.2998 42.6539 46.4464C39.4781 46.6174 36.5711 46.6906 33.884 46.6906L29.9999 46.8372C19.7643 46.8372 13.3884 46.4464 10.8723 45.7624C8.67372 45.1516 7.25686 43.7348 6.64615 41.5362C6.32857 40.3881 6.10872 38.8491 5.96215 36.8948C5.79115 34.9405 5.71786 33.2549 5.71786 31.7892L5.57129 29.7372C5.57129 24.3874 5.96215 20.4544 6.64615 17.9382C7.25686 15.7396 8.67372 14.3228 10.8723 13.7121C12.0204 13.3945 14.1213 13.1746 17.3459 13.0281C20.5216 12.8571 23.4286 12.7838 26.1157 12.7838L29.9999 12.6372C40.2354 12.6372 46.6113 13.0281 49.1274 13.7121C51.326 14.3228 52.7429 15.7396 53.3536 17.9382Z" fill="white"/>
</svg>
