<svg width="84" height="38" viewBox="0 0 84 38" fill="none" xmlns="http://www.w3.org/2000/svg">
<path d="M4.66699 29.6369C3.63802 28.7162 2.05755 28.804 1.1369 29.833C0.216245 30.862 0.304049 32.4425 1.33301 33.3631L4.66699 29.6369ZM34 31.5L32.9325 29.2394L34 31.5ZM82.7678 20.7678C83.7441 19.7915 83.7441 18.2085 82.7678 17.2322L66.8579 1.32233C65.8816 0.34602 64.2986 0.34602 63.3223 1.32233C62.346 2.29864 62.346 3.88155 63.3223 4.85786L77.4645 19L63.3223 33.1421C62.346 34.1184 62.346 35.7014 63.3223 36.6777C64.2986 37.654 65.8816 37.654 66.8579 36.6777L82.7678 20.7678ZM1.33301 33.3631C2.47941 34.3888 4.26767 35.3019 6.34119 36.0155C8.47149 36.7486 11.0968 37.3376 14.0652 37.6026C20.0074 38.1331 27.4187 37.3726 35.0675 33.7606L32.9325 29.2394C26.1813 32.4274 19.676 33.0836 14.5098 32.6224C11.924 32.3916 9.69726 31.8826 7.96819 31.2876C6.18233 30.6731 5.10393 30.0278 4.66699 29.6369L1.33301 33.3631ZM35.0675 33.7606C52.8593 25.359 67.9866 21.5 81 21.5V16.5C67.0134 16.5 51.1407 20.641 32.9325 29.2394L35.0675 33.7606Z" fill="white"/>
</svg>
