<svg width="43" height="43" viewBox="0 0 43 43" fill="none" xmlns="http://www.w3.org/2000/svg">
<g clip-path="url(#clip0_57_493)">
<path d="M42.2628 21.1913C42.2628 32.8005 32.8359 42.2035 21.1971 42.2035C9.55827 42.2035 0.131348 32.8005 0.131348 21.1913C0.131348 9.58213 9.55827 0.179199 21.1971 0.179199C32.8359 0.179199 42.2628 9.58213 42.2628 21.1913Z" fill="url(#paint0_linear_57_493)"/>
<path d="M17.3351 30.8217C16.6505 30.8217 16.7734 30.559 16.5276 29.9112L14.5264 23.3274L26.9552 15.5879L28.4122 15.9731L27.2009 19.265L17.3351 30.8217Z" fill="#C8DAEA"/>
<path d="M17.335 30.8223C17.8616 30.8223 18.0898 30.5772 18.3882 30.297C18.8447 29.8593 24.708 24.1685 24.708 24.1685L21.1092 23.293L17.7738 25.3942L17.335 30.6472V30.8223Z" fill="#A9C9DD"/>
<path d="M17.6856 25.4629L26.1821 31.714C27.1476 32.2393 27.8498 31.9767 28.0956 30.821L31.5539 14.5716C31.905 13.1533 31.0097 12.523 30.0793 12.9432L9.78593 20.7527C8.39911 21.313 8.41666 22.0835 9.54017 22.4162L14.7539 24.0446L26.8141 16.4627C27.3758 16.1125 27.9025 16.3051 27.4812 16.6904L17.6856 25.4629Z" fill="url(#paint1_linear_57_493)"/>
</g>
<defs>
<linearGradient id="paint0_linear_57_493" x1="27.3711" y1="6.82079" x2="16.8835" y2="31.3539" gradientUnits="userSpaceOnUse">
<stop stop-color="#37AEE2"/>
<stop offset="1" stop-color="#1E96C8"/>
</linearGradient>
<linearGradient id="paint1_linear_57_493" x1="22.7749" y1="21.848" x2="27.1475" y2="28.862" gradientUnits="userSpaceOnUse">
<stop stop-color="#EFF7FC"/>
<stop offset="1" stop-color="white"/>
</linearGradient>
<clipPath id="clip0_57_493">
<rect width="42.1315" height="42.0243" fill="white" transform="translate(0.131348 0.179199)"/>
</clipPath>
</defs>
</svg>
