<svg width="43" height="43" viewBox="0 0 43 43" fill="none" xmlns="http://www.w3.org/2000/svg">
<g clip-path="url(#clip0_57_488)">
<path d="M35.9245 6.28521C31.9813 2.34936 26.7381 0.180624 21.1517 0.178223C9.64025 0.178223 0.272227 9.51943 0.267619 21.0011C0.266277 24.6713 1.22769 28.2539 3.05507 31.4119L0.0922852 42.2025L11.1632 39.3069C14.2134 40.9662 17.6478 41.8405 21.1428 41.842H21.1516H21.1517C32.6614 41.842 42.0308 32.4991 42.0357 21.018C42.0376 15.4534 39.8671 10.2213 35.9245 6.28521ZM21.1517 38.3249H21.145C18.0297 38.3233 14.9749 37.489 12.3103 35.9119L11.6761 35.537L5.10642 37.2551L6.86044 30.8683L6.44728 30.2135C4.70959 27.4576 3.79224 24.2727 3.79355 21.0024C3.79736 11.4592 11.5837 3.69542 21.1583 3.69542C25.7948 3.69734 30.1526 5.50001 33.4301 8.77137C36.7073 12.0427 38.5108 16.3915 38.5094 21.0165C38.5054 30.56 30.7188 38.3249 21.1517 38.3249Z" fill="#E0E0E0"/>
<path d="M1.05225 41.0061L3.8797 30.7084C2.13534 27.6946 1.21802 24.2754 1.21912 20.7736C1.22369 9.81659 10.1639 0.902344 21.1486 0.902344C26.48 0.904745 31.4838 2.9743 35.246 6.73047C39.009 10.4866 41.0801 15.4793 41.078 20.7891C41.0734 31.7464 32.1327 40.6614 21.1494 40.6614C21.1486 40.6614 21.1499 40.6614 21.1494 40.6614H21.1405C17.8052 40.6603 14.528 39.8252 11.6172 38.2429L1.05225 41.0061Z" fill="url(#paint0_linear_57_488)"/>
<path fill-rule="evenodd" clip-rule="evenodd" d="M15.9924 12.1623C15.606 11.3055 15.1992 11.2883 14.8317 11.2733C14.531 11.2605 14.1868 11.2612 13.8431 11.2612C13.4992 11.2612 12.9403 11.3902 12.4677 11.905C11.9948 12.4199 10.6621 13.6645 10.6621 16.1958C10.6621 18.7274 12.5107 21.1736 12.7684 21.5171C13.0263 21.8602 16.3369 27.2209 21.5799 29.2832C25.9372 30.9971 26.8239 30.6562 27.7697 30.5704C28.7155 30.4847 30.8215 29.3261 31.2514 28.1246C31.6814 26.9234 31.6814 25.8937 31.5524 25.6785C31.4234 25.4641 31.0795 25.3354 30.5636 25.0781C30.0477 24.8208 27.5118 23.5759 27.0389 23.4044C26.566 23.2329 26.2221 23.1471 25.8781 23.6623C25.5342 24.1768 24.5462 25.3354 24.2453 25.6785C23.9444 26.0223 23.6434 26.0652 23.1275 25.8079C22.6116 25.5498 20.9503 25.0071 18.9795 23.2543C17.446 21.8907 16.4108 20.2065 16.1098 19.6914C15.8089 19.1768 16.0776 18.8981 16.3363 18.6416C16.5679 18.4111 16.8522 18.041 17.1102 17.7405C17.3676 17.4401 17.4535 17.2257 17.6255 16.8826C17.7975 16.539 17.7115 16.2386 17.5825 15.9813C17.4535 15.7241 16.4511 13.1796 15.9924 12.1623Z" fill="white"/>
<path d="M35.7558 6.2205C31.8579 2.32982 26.6748 0.186029 21.1527 0.183594C9.77332 0.183594 0.512839 9.41756 0.508265 20.7674C0.506924 24.3955 1.45729 27.937 3.2637 31.0587L0.334961 41.7254L11.2788 38.8631C14.2941 40.5033 17.689 41.3676 21.1438 41.369H21.1526H21.1527C32.5302 41.369 41.792 32.1334 41.7968 20.784C41.7987 15.2835 39.6532 10.1115 35.7558 6.2205ZM21.1527 37.8924H21.146C18.0665 37.8908 15.0467 37.0661 12.4127 35.5071L11.7858 35.1365L5.29152 36.8348L7.02539 30.5214L6.61697 29.8741C4.89924 27.1498 3.99241 24.0015 3.99375 20.7688C3.9975 11.3352 11.6945 3.66048 21.1592 3.66048C25.7425 3.66237 30.0502 5.44435 33.2901 8.67815C36.5297 11.912 38.3125 16.2108 38.3111 20.7828C38.3071 30.2166 30.6098 37.8924 21.1527 37.8924Z" fill="white"/>
</g>
<defs>
<linearGradient id="paint0_linear_57_488" x1="21.0651" y1="41.0061" x2="21.0651" y2="0.902411" gradientUnits="userSpaceOnUse">
<stop stop-color="#20B038"/>
<stop offset="1" stop-color="#60D66A"/>
</linearGradient>
<clipPath id="clip0_57_488">
<rect width="42.1315" height="42.0243" fill="white" transform="translate(0 0.179199)"/>
</clipPath>
</defs>
</svg>
